<?xml version="1.0" standalone="no"?><!DOCTYPE svg PUBLIC "-//W3C//DTD SVG 1.1//EN" "http://www.w3.org/Graphics/SVG/1.1/DTD/svg11.dtd"><svg width="32" height="32" viewBox="0 0 32 32" version="1.1" xmlns="http://www.w3.org/2000/svg" xmlns:xlink="http://www.w3.org/1999/xlink"><defs><style type="text/css"><![CDATA[
@font-face { font-family: ifont; src: url("http://at.alicdn.com/t/font_1442373896_4754455.eot?#iefix") format("embedded-opentype"), url("http://at.alicdn.com/t/font_1442373896_4754455.woff") format("woff"), url("http://at.alicdn.com/t/font_1442373896_4754455.ttf") format("truetype"), url("http://at.alicdn.com/t/font_1442373896_4754455.svg#ifont") format("svg"); }

]]></style></defs><g class="transform-group"><g transform="scale(0.03125, 0.03125)"><path d="M566.98173 125.673258 302.134737 125.673258c-28.27088 0-51.188846 22.917966-51.188846 51.188846l0 251.872494c0 28.27088 22.917966 51.188846 51.188846 51.188846l264.846994 0c28.27088 0 51.188846-22.917966 51.188846-51.188846L618.170576 176.862103C618.170576 148.591223 595.252611 125.673258 566.98173 125.673258zM561.377082 413.558967l-59.85318 0-17.410532-52.788274-91.410919 0-17.411555 52.788274-58.764382 0 89.234347-241.947448 65.293075 0L561.377082 413.558967zM474.319308 318.979892l-30.469965-83.581604c-2.176572-7.320733-3.996011-14.297634-5.440919-20.895913l-1.087774 0c-0.730641 8.076956-2.550079 15.396665-5.440919 21.994943l-27.205619 82.482573L474.319308 318.979892zM443.459462 513.660826 178.612469 513.660826c-28.27088 0-51.188846 22.917966-51.188846 51.188846l0 251.872494c0 28.27088 22.917966 51.188846 51.188846 51.188846l264.846994 0c28.27088 0 51.188846-22.917966 51.188846-51.188846L494.648308 564.849672C494.648308 536.578792 471.730343 513.660826 443.459462 513.660826zM844.069513 513.660826 579.222519 513.660826c-28.27088 0-51.188846 22.917966-51.188846 51.188846l0 251.872494c0 28.27088 22.917966 51.188846 51.188846 51.188846l264.846994 0c28.27088 0 51.188846-22.917966 51.188846-51.188846L895.258359 564.849672C895.258359 536.578792 872.340393 513.660826 844.069513 513.660826zM319.321164 817.571511 201.793424 817.571511 201.793424 575.624063l112.086821 0c53.680597 1.477654 81.97399 20.534685 84.881203 57.18849 0 28.593222-15.609513 47.667649-46.793746 57.187467 33.360805 7.337105 52.234665 26.03291 56.587809 56.088436C408.555511 793.755082 378.799814 817.571511 319.321164 817.571511zM305.174979 616.315834l-48.969295 0 0 57.187467 48.969295 0c23.209608-0.721431 35.180244-10.997472 35.911908-30.79333C340.355223 625.113197 328.384587 616.315834 305.174979 616.315834zM310.615898 714.194048l-54.411237 0 0 64.885799 53.322439 0c26.831089 0 40.621163-10.997472 41.352827-32.992415C348.703355 725.56912 335.270415 714.932876 310.615898 714.194048zM822.138014 646.00911l-52.234665 12.096503c-7.261381-24.916483-23.941272-38.113039-50.058093-39.590694-36.999682 2.199085-56.587809 28.233018-58.764382 78.083379 1.444908 50.589189 21.033036 77.361949 58.764382 80.282464 29.739325-0.721431 47.149856-18.696828 52.234665-53.888328l52.234665 16.496719c-12.344143 54.987359-47.168276 82.482573-104.46933 82.482573-73.999364-3.677762-112.818485-45.451168-116.439966-125.373429 3.621481-78.443583 42.440601-119.874181 116.439966-124.272351C772.079922 573.803601 806.171368 598.358857 822.138014 646.00911z" fill="#eb4f38"></path></g></g></svg>