<?xml version="1.0" standalone="no"?><!DOCTYPE svg PUBLIC "-//W3C//DTD SVG 1.1//EN" "http://www.w3.org/Graphics/SVG/1.1/DTD/svg11.dtd"><svg width="32" height="32" viewBox="0 0 32 32" version="1.1" xmlns="http://www.w3.org/2000/svg" xmlns:xlink="http://www.w3.org/1999/xlink"><defs><style type="text/css"><![CDATA[
@font-face { font-family: ifont; src: url("http://at.alicdn.com/t/font_1442373896_4754455.eot?#iefix") format("embedded-opentype"), url("http://at.alicdn.com/t/font_1442373896_4754455.woff") format("woff"), url("http://at.alicdn.com/t/font_1442373896_4754455.ttf") format("truetype"), url("http://at.alicdn.com/t/font_1442373896_4754455.svg#ifont") format("svg"); }

]]></style></defs><g class="transform-group"><g transform="scale(0.03125, 0.03125)"><path d="M964.05 350.81 512.256 128.335 59.875 350.81l452.381 225.448L964.05 350.81zM204.125 351.19l308.113-151.525L819.95 351.19 512.238 504.742 204.125 351.19zM64 445 64 516.167 512.039 734.701 512.056 734.735 512.082 734.723 512.109 734.735 512.126 734.701 960 516.429 960 445.161 512.087 663.521ZM64 606 64 677.167 512.039 895.701 512.056 895.735 512.082 895.723 512.109 895.735 512.126 895.701 960 677.429 960 606.161 512.087 824.521Z" fill="#eb4f38"></path></g></g></svg>