<?xml version="1.0" standalone="no"?><!DOCTYPE svg PUBLIC "-//W3C//DTD SVG 1.1//EN" "http://www.w3.org/Graphics/SVG/1.1/DTD/svg11.dtd"><svg width="32" height="32" viewBox="0 0 32 32" version="1.1" xmlns="http://www.w3.org/2000/svg" xmlns:xlink="http://www.w3.org/1999/xlink"><defs><style type="text/css"><![CDATA[
@font-face { font-family: ifont; src: url("http://at.alicdn.com/t/font_1442373896_4754455.eot?#iefix") format("embedded-opentype"), url("http://at.alicdn.com/t/font_1442373896_4754455.woff") format("woff"), url("http://at.alicdn.com/t/font_1442373896_4754455.ttf") format("truetype"), url("http://at.alicdn.com/t/font_1442373896_4754455.svg#ifont") format("svg"); }

]]></style></defs><g class="transform-group"><g transform="scale(0.03125, 0.03125)"><path d="M958.059684 958.524776c0 5.272074-7.509021 9.555633-16.779152 9.555633L80.001567 968.080409c-9.267061 0-16.778128-4.28356-16.778128-9.555633l0-25.492604c0-5.284353 7.510044-9.564843 16.778128-9.564843l861.278965 0c9.271154 0 16.779152 4.28049 16.779152 9.564843L958.059684 958.524776zM252.499269 881.898585c0 5.725398-6.661723 10.370185-14.873756 10.370185L126.102534 892.26877c-8.230452 0-14.880919-4.644787-14.880919-10.370185L111.221616 702.287881c0-5.725398 6.650467-10.370185 14.880919-10.370185L237.625514 691.917696c8.212032 0 14.873756 4.644787 14.873756 10.370185L252.499269 881.898585zM466.53911 876.132254c0 8.801457-6.653537 15.941064-14.859429 15.941064L340.132142 892.073318c-8.208962 0-14.861476-7.140631-14.861476-15.941064L325.270666 599.845721c0-8.804527 6.652514-15.930831 14.861476-15.930831l111.547539 0c8.205892 0 14.859429 7.127328 14.859429 15.930831L466.53911 876.132254zM697.287495 877.633445c0 11.493775-6.662747 14.439874-14.859429 14.439874L570.883597 892.073318c-8.212032 0-14.861476-2.946099-14.861476-14.439874L556.022121 504.171708c0-11.494799 6.649444-14.440897 14.861476-14.440897l111.544469 0c8.197706 0 14.859429 2.945075 14.859429 14.440897L697.287495 877.633445zM915.602709 873.599571c0 18.300808-6.652514 18.202571-14.866592 18.202571l-111.530143 0c-8.214079 0-14.879895 0.098237-14.879895-18.202571L774.326079 269.565459c0-18.290575 6.665817-18.201547 14.879895-18.201547l111.530143 0c8.214079 0 14.866592-0.088004 14.866592 18.201547L915.602709 873.599571zM869.81999 170.595376 750.428809 55.053873l-136.800689 115.541503 104.380302 0c-23.460318 85.038792-139.880841 368.432187-655.500275 410.054143 0 0 599.713714 50.994418 703.642738-410.054143L869.81999 170.595376z" fill="#eb4f38"></path></g></g></svg>