<?xml version="1.0" standalone="no"?><!DOCTYPE svg PUBLIC "-//W3C//DTD SVG 1.1//EN" "http://www.w3.org/Graphics/SVG/1.1/DTD/svg11.dtd"><svg width="32" height="32" viewBox="0 0 32 32" version="1.1" xmlns="http://www.w3.org/2000/svg" xmlns:xlink="http://www.w3.org/1999/xlink"><defs><style type="text/css"><![CDATA[
@font-face { font-family: ifont; src: url("http://at.alicdn.com/t/font_1442373896_4754455.eot?#iefix") format("embedded-opentype"), url("http://at.alicdn.com/t/font_1442373896_4754455.woff") format("woff"), url("http://at.alicdn.com/t/font_1442373896_4754455.ttf") format("truetype"), url("http://at.alicdn.com/t/font_1442373896_4754455.svg#ifont") format("svg"); }

]]></style></defs><g class="transform-group"><g transform="scale(0.03125, 0.03125)"><path d="M475.456 577.248l68.992 0 0 157.568-68.992 0 0-157.568ZM759.104 174.272l96.64 0 43.456 0c0 0 0 35.68 0 40.48 0.768 30.4-23.328 195.808-165.504 213.248 0 0 9.664-18.656 12.544-41.28 0 0 102.048-31.264 113.984-169.952L757.76 216.768 759.104 174.272zM264.48 172.832 165.536 172.832l-44.48 0c0 0 0 35.68 0 40.48-0.768 30.4 23.904 195.808 169.44 213.248 0 0-9.888-18.656-12.832-41.28 0 0-104.48-31.264-116.704-169.952l104.896 0L264.48 172.832zM432.896 536.544l154.496 0 0 40.672-154.496 0 0-40.672ZM432.896 734.816l154.496 0 0 47.328-154.496 0 0-47.328ZM318.848 958.656 364.128 782.144 657.504 782.144 702.784 958.656ZM165.888 62.784l0.128 43.04 60.288 0C247.008 108.64 258.24 125.248 261.248 136.832 263.68 146.08 262.816 174.976 262.816 174.976l0.288 179.424c0 29.216 28.8 75.456 28.8 75.456 52.128 88.064 140.992 106.72 140.992 106.72l155.552 0c72.704-5.76 143.2-105.888 143.2-105.888 19.36-24.32 25.344-63.584 26.816-86.144 2.72-41.696 0.672-167.072 0.672-167.072s0 0 0-34.08c0-34.08 38.624-38.624 38.624-38.624l58.016 0L855.776 62.784 165.888 62.784zM510.816 419.328c-68.544 0-124.096-55.552-124.096-124.096 0-68.544 55.552-124.096 124.096-124.096 68.544 0 124.096 55.552 124.096 124.096C634.88 363.776 579.328 419.328 510.816 419.328zM510.816 212.736 537.632 267.072 597.568 275.776 554.176 318.048 564.416 377.76 510.816 349.568 457.184 377.76 467.424 318.048 424.064 275.776 484 267.072Z" fill="#eb4f38"></path></g></g></svg>